<?xml version="1.0" encoding="UTF-8" standalone="no" ?>
<!DOCTYPE svg PUBLIC "-//W3C//DTD SVG 1.1//EN" "http://www.w3.org/Graphics/SVG/1.1/DTD/svg11.dtd">
<svg xmlns="http://www.w3.org/2000/svg" xmlns:xlink="http://www.w3.org/1999/xlink" version="1.1" width="400" height="400" viewBox="0 0 400 400" xml:space="preserve">
<desc>Created with Fabric.js 3.6.2</desc>
<defs>
</defs>
<g transform="matrix(8.33 0 0 8.33 199.96 199.96)" id="_Path_"  >
<path style="stroke: rgb(48,60,66); stroke-width: 1; stroke-dasharray: none; stroke-linecap: round; stroke-dashoffset: 0; stroke-linejoin: round; stroke-miterlimit: 4; fill: none; fill-rule: nonzero; opacity: 1;"  transform=" translate(-11.99, -11.99)" d="M 23.21 11.29 L 12.71 0.79 a 1 1 0 0 0 -1.41 0 L 0.79 11.29 a 1 1 0 0 0 0 1.41 l 10.5 10.5 a 1 1 0 0 0 1.41 0 l 10.5 -10.5 a 1 1 0 0 0 0 -1.41 Z" stroke-linecap="round" />
</g>
<g transform="matrix(8.33 0 0 8.33 181.42 139.75)" id="_Path_2"  >
<line style="stroke: rgb(48,60,66); stroke-width: 1; stroke-dasharray: none; stroke-linecap: round; stroke-dashoffset: 0; stroke-linejoin: round; stroke-miterlimit: 4; fill: none; fill-rule: nonzero; opacity: 1;"  x1="-1.17" y1="-1.1700000000000002" x2="1.17" y2="1.1700000000000002" />
</g>
<g transform="matrix(8.33 0 0 8.33 200 200)" id="_Path_3"  >
<line style="stroke: rgb(48,60,66); stroke-width: 1; stroke-dasharray: none; stroke-linecap: round; stroke-dashoffset: 0; stroke-linejoin: round; stroke-miterlimit: 4; fill: none; fill-rule: nonzero; opacity: 1;"  x1="0" y1="-3.5" x2="0" y2="3.5" />
</g>
<g transform="matrix(8.33 0 0 8.33 200 158.33)" id="_Path_4"  >
<circle style="stroke: rgb(48,60,66); stroke-width: 1; stroke-dasharray: none; stroke-linecap: round; stroke-dashoffset: 0; stroke-linejoin: round; stroke-miterlimit: 4; fill: none; fill-rule: nonzero; opacity: 1;"  cx="0" cy="0" r="1.5" />
</g>
<g transform="matrix(8.33 0 0 8.33 241.67 200)" id="_Path_5"  >
<circle style="stroke: rgb(48,60,66); stroke-width: 1; stroke-dasharray: none; stroke-linecap: round; stroke-dashoffset: 0; stroke-linejoin: round; stroke-miterlimit: 4; fill: none; fill-rule: nonzero; opacity: 1;"  cx="0" cy="0" r="1.5" />
</g>
<g transform="matrix(8.33 0 0 8.33 200 241.67)" id="_Path_6"  >
<circle style="stroke: rgb(48,60,66); stroke-width: 1; stroke-dasharray: none; stroke-linecap: round; stroke-dashoffset: 0; stroke-linejoin: round; stroke-miterlimit: 4; fill: none; fill-rule: nonzero; opacity: 1;"  cx="0" cy="0" r="1.5" />
</g>
<g transform="matrix(8.33 0 0 8.33 220.75 179.25)" id="_Path_7"  >
<line style="stroke: rgb(48,60,66); stroke-width: 1; stroke-dasharray: none; stroke-linecap: round; stroke-dashoffset: 0; stroke-linejoin: round; stroke-miterlimit: 4; fill: none; fill-rule: nonzero; opacity: 1;"  x1="-1.4399999999999995" y1="-1.4399999999999995" x2="1.4399999999999995" y2="1.4399999999999995" />
</g>
</svg>