<?xml version="1.0" encoding="UTF-8" standalone="no" ?>
<!DOCTYPE svg PUBLIC "-//W3C//DTD SVG 1.1//EN" "http://www.w3.org/Graphics/SVG/1.1/DTD/svg11.dtd">
<svg xmlns="http://www.w3.org/2000/svg" xmlns:xlink="http://www.w3.org/1999/xlink" version="1.1" width="400" height="400" viewBox="0 0 400 400" xml:space="preserve">
<desc>Created with Fabric.js 3.6.2</desc>
<defs>
</defs>
<g transform="matrix(8.7 0 0 8.7 200 200)" id="_Path_"  >
<path style="stroke: rgb(48,60,66); stroke-width: 1; stroke-dasharray: none; stroke-linecap: round; stroke-dashoffset: 0; stroke-linejoin: round; stroke-miterlimit: 4; fill: none; fill-rule: nonzero; opacity: 1;"  transform=" translate(-12, -12)" d="M 0.5 6.5 h 4 s 2.31 6 4.5 6 c 0.41 0 0.5 -0.75 0.5 -3 s -0.59 -3 -1 -3 c 0 -0.41 0.78 -1 3 -1 s 2 0.06 2 1 v 4 c 0 1.16 0.38 2 1 2 s 4.22 -4.44 4.5 -6 h 4.5 c 0 0.53 -4 6.06 -4 6.5 s 4 4.5 4 5 s -0.87 0.5 -2 0.5 H 19 c -0.59 0 -3.16 -3 -4.5 -3 s -0.28 3 -1.5 3 H 11 C 7.28 18.5 1 9.41 0.5 6.5 Z" stroke-linecap="round" />
</g>
</svg>